<svg xmlns="http://www.w3.org/2000/svg" viewBox="0 0 840 300" fill="none">
  <defs>
    <linearGradient id="bg" x1="0" y1="0" x2="840" y2="300" gradientUnits="userSpaceOnUse">
      <stop offset="0%" stop-color="#0d1117"/><stop offset="100%" stop-color="#161b22"/>
    </linearGradient>
    <linearGradient id="aura" x1="0" y1="0" x2="1" y2="1">
      <stop offset="0%" stop-color="#58a6ff"/><stop offset="100%" stop-color="#bc8cff"/>
    </linearGradient>
    <linearGradient id="fire" x1="0" y1="1" x2="0" y2="0">
      <stop offset="0%" stop-color="#ffa657"/><stop offset="50%" stop-color="#ff7b72"/><stop offset="100%" stop-color="#bc8cff"/>
    </linearGradient>
    <filter id="gl"><feGaussianBlur stdDeviation="3" result="b"/><feMerge><feMergeNode in="b"/><feMergeNode in="SourceGraphic"/></feMerge></filter>
    <filter id="gl2"><feGaussianBlur stdDeviation="8" result="b"/><feMerge><feMergeNode in="b"/><feMergeNode in="SourceGraphic"/></feMerge></filter>
    <filter id="sh"><feDropShadow dx="0" dy="2" stdDeviation="4" flood-color="#000" flood-opacity="0.5"/></filter>
  </defs>

  <rect width="840" height="300" fill="url(#bg)" rx="10"/>
  <g opacity="0.04" fill="#58a6ff">
    <circle cx="30" cy="30" r="1"/><circle cx="70" cy="30" r="1"/><circle cx="110" cy="30" r="1"/><circle cx="150" cy="30" r="1"/><circle cx="190" cy="30" r="1"/><circle cx="230" cy="30" r="1"/><circle cx="270" cy="30" r="1"/><circle cx="310" cy="30" r="1"/><circle cx="350" cy="30" r="1"/><circle cx="390" cy="30" r="1"/><circle cx="430" cy="30" r="1"/><circle cx="470" cy="30" r="1"/><circle cx="510" cy="30" r="1"/><circle cx="550" cy="30" r="1"/><circle cx="590" cy="30" r="1"/><circle cx="630" cy="30" r="1"/><circle cx="670" cy="30" r="1"/><circle cx="710" cy="30" r="1"/><circle cx="750" cy="30" r="1"/><circle cx="790" cy="30" r="1"/>
    <circle cx="30" cy="70" r="1"/><circle cx="70" cy="70" r="1"/><circle cx="110" cy="70" r="1"/><circle cx="150" cy="70" r="1"/><circle cx="190" cy="70" r="1"/><circle cx="230" cy="70" r="1"/><circle cx="270" cy="70" r="1"/><circle cx="310" cy="70" r="1"/><circle cx="350" cy="70" r="1"/><circle cx="390" cy="70" r="1"/><circle cx="430" cy="70" r="1"/><circle cx="470" cy="70" r="1"/><circle cx="510" cy="70" r="1"/><circle cx="550" cy="70" r="1"/><circle cx="590" cy="70" r="1"/><circle cx="630" cy="70" r="1"/><circle cx="670" cy="70" r="1"/><circle cx="710" cy="70" r="1"/><circle cx="750" cy="70" r="1"/><circle cx="790" cy="70" r="1"/>
    <circle cx="30" cy="110" r="1"/><circle cx="70" cy="110" r="1"/><circle cx="110" cy="110" r="1"/><circle cx="150" cy="110" r="1"/><circle cx="190" cy="110" r="1"/><circle cx="230" cy="110" r="1"/><circle cx="270" cy="110" r="1"/><circle cx="310" cy="110" r="1"/><circle cx="350" cy="110" r="1"/><circle cx="390" cy="110" r="1"/><circle cx="430" cy="110" r="1"/><circle cx="470" cy="110" r="1"/><circle cx="510" cy="110" r="1"/><circle cx="550" cy="110" r="1"/><circle cx="590" cy="110" r="1"/><circle cx="630" cy="110" r="1"/><circle cx="670" cy="110" r="1"/><circle cx="710" cy="110" r="1"/><circle cx="750" cy="110" r="1"/><circle cx="790" cy="110" r="1"/>
  </g>

  <!-- ========== SCENE 1: CHILL — coding at MacBook ========== -->
  <g>
    <animate attributeName="opacity" values="1;1;0;0;0;0;0;0;0;0;0;0;1" keyTimes="0;0.2;0.25;0.3;0.35;0.4;0.5;0.6;0.7;0.75;0.85;0.9;1" dur="20s" repeatCount="indefinite"/>

    <!-- Big monitor (background) -->
    <g filter="url(#sh)">
      <rect x="280" y="20" width="340" height="220" rx="8" fill="#0d1117" stroke="#21262d" stroke-width="1"/>
      <rect x="288" y="28" width="324" height="204" rx="4" fill="#0a0e14"/>
      <text x="302" y="52" font-family="monospace" font-size="11" fill="#ff7b72">import</text>
      <text x="346" y="52" font-family="monospace" font-size="11" fill="#c9d1d9"> { prisma } </text>
      <text x="430" y="52" font-family="monospace" font-size="11" fill="#ff7b72">from</text>
      <text x="462" y="52" font-family="monospace" font-size="11" fill="#a5d6ff">"@/db"</text>
      <text x="302" y="72" font-family="monospace" font-size="11" fill="#ff7b72">import</text>
      <text x="346" y="72" font-family="monospace" font-size="11" fill="#c9d1d9"> { NextResponse } </text>
      <text x="464" y="72" font-family="monospace" font-size="11" fill="#ff7b72">from</text>
      <text x="496" y="72" font-family="monospace" font-size="11" fill="#a5d6ff">"next/server"</text>
      <text x="302" y="100" font-family="monospace" font-size="11" fill="#ff7b72">export async function</text>
      <text x="456" y="100" font-family="monospace" font-size="11" fill="#d2a8ff"> GET</text>
      <text x="482" y="100" font-family="monospace" font-size="11" fill="#c9d1d9">() {</text>
      <text x="316" y="120" font-family="monospace" font-size="11" fill="#ff7b72">const</text>
      <text x="354" y="120" font-family="monospace" font-size="11" fill="#79c0ff"> data</text>
      <text x="384" y="120" font-family="monospace" font-size="11" fill="#c9d1d9"> = </text>
      <text x="400" y="120" font-family="monospace" font-size="11" fill="#ff7b72">await</text>
      <text x="440" y="120" font-family="monospace" font-size="11" fill="#d2a8ff"> prisma</text>
      <text x="316" y="140" font-family="monospace" font-size="11" fill="#c9d1d9">    .user.findMany()</text>
      <text x="316" y="168" font-family="monospace" font-size="11" fill="#ff7b72">return</text>
      <text x="364" y="168" font-family="monospace" font-size="11" fill="#d2a8ff"> NextResponse</text>
      <text x="456" y="168" font-family="monospace" font-size="11" fill="#c9d1d9">.json(data)</text>
      <text x="302" y="188" font-family="monospace" font-size="11" fill="#c9d1d9">}</text>
      <rect x="310" y="194" width="7" height="13" fill="#58a6ff"><animate attributeName="opacity" values="1;0;1" dur="1s" repeatCount="indefinite"/></rect>
      <rect x="430" y="240" width="50" height="6" rx="2" fill="#21262d"/>
    </g>

    <!-- CHARACTER: sitting at desk -->
    <g transform="translate(130,100)">
      <!-- Chair -->
      <rect x="-24" y="90" width="68" height="70" rx="10" fill="#161b22"/>
      <!-- Body — blue polo -->
      <path d="M-12,98 Q-14,82 2,74 L18,74 Q34,82 32,98 L34,155 L-14,155 Z" fill="#2b5ea8"/>
      <path d="M0,74 L10,84 L20,74" fill="none" stroke="#3a70b8" stroke-width="1.5"/>
      <circle cx="10" cy="82" r="0.8" fill="#1e4d80"/>
      <!-- Neck -->
      <rect x="2" y="60" width="16" height="14" rx="5" fill="#b8885a"/>
      <!-- FACE — wider than tall (rx=26, ry=19) -->
      <ellipse cx="10" cy="42" rx="26" ry="19" fill="#c9956a"/>
      <!-- Ears -->
      <ellipse cx="-14" cy="44" rx="5" ry="7" fill="#b8885a"/>
      <ellipse cx="34" cy="44" rx="5" ry="7" fill="#b8885a"/>
      <!-- ===== HAIR: covers head top, side-swept right ===== -->
      <!-- Base mass: from ear-level(y=38) over top(-12) to right sweep(x=52) -->
      <path d="M-16,36 Q-18,14 -8,2 Q4,-8 14,-10 Q26,-8 38,-2 Q46,8 44,24 Q44,30 42,36 L36,32 Q28,26 20,24 Q12,24 4,26 Q-4,32 -12,36 Z" fill="#0f0c06"/>
      <!-- Thick wave strokes for texture -->
      <path d="M-6,6 Q6,-4 18,-4 Q32,0 42,14" fill="none" stroke="#0f0c06" stroke-width="9" stroke-linecap="round"/>
      <path d="M0,2 Q12,-4 24,-2 Q36,4 44,16" fill="none" stroke="#111" stroke-width="6" stroke-linecap="round" opacity="0.6"/>
      <!-- Hair shine -->
      <path d="M4,-2 Q14,-6 26,-2 Q38,4 44,14" fill="none" stroke="#1a1812" stroke-width="2.5" stroke-linecap="round" opacity="0.35"/>
      <!-- Thick eyebrows -->
      <path d="M-8,34 Q-2,31 4,33" fill="none" stroke="#0f0c06" stroke-width="3" stroke-linecap="round"/>
      <path d="M16,33 Q22,31 28,34" fill="none" stroke="#0f0c06" stroke-width="3" stroke-linecap="round"/>
      <!-- Eyes -->
      <ellipse cx="-2" cy="42" rx="4" ry="3.5" fill="#fff"/>
      <ellipse cx="22" cy="42" rx="4" ry="3.5" fill="#fff"/>
      <circle cx="-1" cy="42.5" r="2.5" fill="#2a1510"/>
      <circle cx="23" cy="42.5" r="2.5" fill="#2a1510"/>
      <circle cx="-2" cy="41.5" r="0.8" fill="#fff" opacity="0.7"/>
      <circle cx="22" cy="41.5" r="0.8" fill="#fff" opacity="0.7"/>
      <!-- Nose -->
      <path d="M8,48 Q10,51 12,48" fill="none" stroke="#a07850" stroke-width="1.3" stroke-linecap="round"/>
      <!-- Goatee -->
      <path d="M2,54 Q6,57 10,54 Q14,57 18,54" fill="#0f0c06" opacity="0.9"/>
      <path d="M4,57 Q10,66 16,57 Q14,62 10,65 Q6,62 4,57 Z" fill="#0f0c06" opacity="0.8"/>
      <!-- Smile -->
      <path d="M4,55 Q10,58 16,55" fill="none" stroke="#8b6948" stroke-width="1" stroke-linecap="round"/>
      <!-- Arms reaching to laptop -->
      <path d="M-12,98 Q-10,118 4,140" fill="none" stroke="#2b5ea8" stroke-width="12" stroke-linecap="round"/>
      <path d="M32,98 Q30,118 16,140" fill="none" stroke="#2b5ea8" stroke-width="12" stroke-linecap="round"/>
      <ellipse cx="6" cy="142" rx="7" ry="4" fill="#b8885a"/>
      <ellipse cx="16" cy="142" rx="7" ry="4" fill="#b8885a"/>
    </g>

    <!-- Desk surface -->
    <rect x="70" y="252" width="560" height="6" rx="2" fill="#1c2128"/>
    <rect x="78" y="258" width="4" height="22" rx="1" fill="#1c2128"/>
    <rect x="622" y="258" width="4" height="22" rx="1" fill="#1c2128"/>

    <!-- MacBook Pro on desk -->
    <g>
      <!-- Screen (space gray bezel) -->
      <rect x="108" y="210" width="64" height="42" rx="4" fill="#2d2d2d"/>
      <!-- Display -->
      <rect x="112" y="214" width="56" height="34" rx="2" fill="#0a0e14"/>
      <!-- Code on MacBook screen -->
      <rect x="116" y="218" width="26" height="2" rx="0.5" fill="#ff7b72" opacity="0.7"/>
      <rect x="116" y="222" width="40" height="2" rx="0.5" fill="#79c0ff" opacity="0.6"/>
      <rect x="116" y="226" width="20" height="2" rx="0.5" fill="#7ee787" opacity="0.6"/>
      <rect x="116" y="230" width="34" height="2" rx="0.5" fill="#d2a8ff" opacity="0.5"/>
      <rect x="116" y="234" width="16" height="2" rx="0.5" fill="#ffa657" opacity="0.5"/>
      <rect x="116" y="238" width="30" height="2" rx="0.5" fill="#c9d1d9" opacity="0.5"/>
      <rect x="116" y="242" width="24" height="2" rx="0.5" fill="#ff7b72" opacity="0.5"/>
      <!-- Camera dot -->
      <circle cx="140" cy="212" r="0.8" fill="#1a1a1a"/>
      <!-- MacBook base / keyboard -->
      <path d="M104,252 L176,252 L180,256 Q180,258 178,258 L102,258 Q100,258 100,256 Z" fill="#2d2d2d"/>
      <!-- Trackpad -->
      <rect x="130" y="253" width="20" height="3" rx="1" fill="#3a3a3a"/>
      <!--  logo (simplified) -->
      <path d="M139,246 Q140,244 141,246 Q142,247 141,248 Q140,249 139,248 Q138,247 139,246 Z" fill="#58a6ff" opacity="0" />
    </g>

    <!-- Coffee on desk -->
    <g transform="translate(74,240)">
      <rect width="12" height="12" rx="2" fill="#2d333b"/>
      <path d="M12,2 Q16,2 16,6 Q16,10 12,10" fill="none" stroke="#2d333b" stroke-width="1.2"/>
      <rect x="1" y="1" width="10" height="3" rx="1" fill="#6e4b2a"/>
      <path d="M3,-2 Q5,-6 3,-9" fill="none" stroke="#484f58" stroke-width="0.6" opacity="0.3"><animate attributeName="opacity" values="0.3;0.1;0.3" dur="2s" repeatCount="indefinite"/></path>
    </g>

    <text x="420" y="282" font-family="monospace" font-size="11" fill="#30363d" text-anchor="middle">// just vibing...</text>
  </g>

  <!-- ========== SCENE 2: CHALLENGE ========== -->
  <g opacity="0">
    <animate attributeName="opacity" values="0;0;1;1;0;0;0;0;0;0;0;0;0" keyTimes="0;0.2;0.25;0.35;0.4;0.45;0.5;0.6;0.7;0.75;0.85;0.9;1" dur="20s" repeatCount="indefinite"/>

    <g transform="translate(130,100)">
      <rect x="-24" y="90" width="68" height="70" rx="10" fill="#161b22"/>
      <path d="M-12,98 Q-14,82 2,74 L18,74 Q34,82 32,98 L34,155 L-14,155 Z" fill="#2b5ea8"/>
      <path d="M0,74 L10,84 L20,74" fill="none" stroke="#3a70b8" stroke-width="1.5"/>
      <rect x="2" y="60" width="16" height="14" rx="5" fill="#b8885a"/>
      <!-- Wide face -->
      <ellipse cx="10" cy="42" rx="26" ry="19" fill="#c9956a"/>
      <ellipse cx="-14" cy="44" rx="5" ry="7" fill="#b8885a"/>
      <ellipse cx="34" cy="44" rx="5" ry="7" fill="#b8885a"/>
      <!-- Hair -->
      <path d="M-16,36 Q-18,14 -8,2 Q4,-8 14,-10 Q26,-8 38,-2 Q46,8 44,24 Q44,30 42,36 L36,32 Q28,26 20,24 Q12,24 4,26 Q-4,32 -12,36 Z" fill="#0f0c06"/>
      <path d="M-6,6 Q6,-4 18,-4 Q32,0 42,14" fill="none" stroke="#0f0c06" stroke-width="9" stroke-linecap="round"/>
      <path d="M0,2 Q12,-4 24,-2 Q36,4 44,16" fill="none" stroke="#111" stroke-width="6" stroke-linecap="round" opacity="0.6"/>
      <path d="M4,-2 Q14,-6 26,-2 Q38,4 44,14" fill="none" stroke="#1a1812" stroke-width="2.5" stroke-linecap="round" opacity="0.35"/>
      <!-- Raised eyebrows -->
      <path d="M-8,32 Q-2,28 4,31" fill="none" stroke="#0f0c06" stroke-width="3" stroke-linecap="round"/>
      <path d="M16,31 Q22,28 28,32" fill="none" stroke="#0f0c06" stroke-width="3" stroke-linecap="round"/>
      <!-- Wide shocked eyes -->
      <ellipse cx="-2" cy="42" rx="6" ry="6" fill="#fff"/>
      <ellipse cx="22" cy="42" rx="6" ry="6" fill="#fff"/>
      <circle cx="-1" cy="43" r="3.5" fill="#2a1510"/>
      <circle cx="23" cy="43" r="3.5" fill="#2a1510"/>
      <circle cx="-2.5" cy="41" r="1.2" fill="#fff" opacity="0.8"/>
      <circle cx="21.5" cy="41" r="1.2" fill="#fff" opacity="0.8"/>
      <path d="M8,48 Q10,51 12,48" fill="none" stroke="#a07850" stroke-width="1.3"/>
      <!-- Goatee -->
      <path d="M2,54 Q6,57 10,54 Q14,57 18,54" fill="#0f0c06" opacity="0.9"/>
      <path d="M4,57 Q10,66 16,57 Q14,62 10,65 Q6,62 4,57 Z" fill="#0f0c06" opacity="0.8"/>
      <!-- Shocked mouth -->
      <ellipse cx="10" cy="56" rx="6" ry="5" fill="#3d2a1a"/>
      <path d="M6,55 L14,55" fill="none" stroke="#f0e6d6" stroke-width="0.8" opacity="0.4"/>
      <!-- Arms UP -->
      <path d="M-12,98 Q-26,78 -18,55" fill="none" stroke="#2b5ea8" stroke-width="12" stroke-linecap="round"/>
      <path d="M32,98 Q46,78 38,55" fill="none" stroke="#2b5ea8" stroke-width="12" stroke-linecap="round"/>
      <ellipse cx="-17" cy="53" rx="7" ry="4" fill="#b8885a"/>
      <ellipse cx="38" cy="53" rx="7" ry="4" fill="#b8885a"/>
    </g>

    <text x="186" y="92" font-family="monospace" font-size="30" fill="#ffa657" font-weight="bold" filter="url(#gl)">!!</text>
    <path d="M168,110 Q170,104 169,98" fill="none" stroke="#58a6ff" stroke-width="1.5"/>
    <ellipse cx="169" cy="113" rx="2.5" ry="3.5" fill="#58a6ff" opacity="0.5"/>
    <g stroke="#ffa657" stroke-width="1.5" stroke-linecap="round" opacity="0.5">
      <line x1="95" y1="128" x2="80" y2="118"/><line x1="93" y1="148" x2="75" y2="148"/>
      <line x1="95" y1="168" x2="80" y2="178"/><line x1="175" y1="112" x2="190" y2="102"/>
    </g>

    <!-- Notification card -->
    <g filter="url(#sh)">
      <rect x="260" y="50" width="360" height="80" rx="10" fill="#161b22" stroke="#ffa657" stroke-width="1.5"/>
      <circle cx="288" cy="77" r="12" fill="#ffa657" opacity="0.15"/>
      <text x="284" y="82" font-family="monospace" font-size="16" fill="#ffa657" font-weight="bold">!</text>
      <text x="310" y="77" font-family="monospace" font-size="12" fill="#e6edf3" font-weight="bold">New Project Request</text>
      <text x="278" y="99" font-family="monospace" font-size="9" fill="#8b949e">"Build a full-stack SaaS for 100K+ users"</text>
      <text x="278" y="115" font-family="monospace" font-size="9" fill="#8b949e">Real-time, scalable, production-ready</text>
      <rect x="278" y="120" width="42" height="10" rx="3" fill="#58a6ff" opacity="0.15"/>
      <text x="284" y="128" font-family="monospace" font-size="6.5" fill="#58a6ff">Next.js</text>
      <rect x="324" y="120" width="38" height="10" rx="3" fill="#56d364" opacity="0.15"/>
      <text x="330" y="128" font-family="monospace" font-size="6.5" fill="#56d364">Prisma</text>
      <rect x="366" y="120" width="56" height="10" rx="3" fill="#ffa657" opacity="0.15"/>
      <text x="372" y="128" font-family="monospace" font-size="6.5" fill="#ffa657">WebSocket</text>
    </g>

    <!-- MacBook on desk (pushed back slightly) -->
    <rect x="70" y="252" width="200" height="6" rx="2" fill="#1c2128"/>
    <rect x="108" y="218" width="64" height="34" rx="4" fill="#2d2d2d"/>
    <rect x="112" y="222" width="56" height="26" rx="2" fill="#0a0e14"/>
    <path d="M104,252 L176,252 L180,256 Q180,258 178,258 L102,258 Q100,258 100,256 Z" fill="#2d2d2d"/>

    <text x="420" y="282" font-family="monospace" font-size="11" fill="#ffa657" text-anchor="middle">challenge accepted.</text>
  </g>

  <!-- ========== SCENE 3: POWER UP ========== -->
  <g opacity="0">
    <animate attributeName="opacity" values="0;0;0;0;1;1;0;0;0;0;0;0;0" keyTimes="0;0.2;0.25;0.35;0.4;0.5;0.55;0.6;0.7;0.75;0.85;0.9;1" dur="20s" repeatCount="indefinite"/>

    <g transform="translate(130,110)">
      <rect x="-24" y="80" width="68" height="70" rx="10" fill="#161b22"/>
      <path d="M-12,95 Q-14,79 2,71 L18,71 Q34,79 32,95 L34,150 L-14,150 Z" fill="#2b5ea8"/>
      <path d="M0,71 L10,81 L20,71" fill="none" stroke="#3a70b8" stroke-width="1.5"/>
      <rect x="2" y="57" width="16" height="14" rx="5" fill="#b8885a"/>
      <ellipse cx="10" cy="40" rx="26" ry="19" fill="#c9956a"/>
      <ellipse cx="-14" cy="42" rx="5" ry="7" fill="#b8885a"/>
      <ellipse cx="34" cy="42" rx="5" ry="7" fill="#b8885a"/>
      <!-- Hair FLYING UP (power-up) -->
      <path d="M-16,34 Q-18,10 -8,-4 Q4,-12 14,-14 Q26,-12 38,-6 Q46,2 44,18 Q44,26 42,34 L36,30 Q28,24 20,22 Q12,22 4,24 Q-4,30 -12,34 Z" fill="#0f0c06"/>
      <path d="M-6,0 Q6,-10 18,-12 Q32,-6 42,8" fill="none" stroke="#0f0c06" stroke-width="9" stroke-linecap="round"/>
      <path d="M0,-4 Q12,-12 24,-10 Q36,-2 44,10" fill="none" stroke="#111" stroke-width="6" stroke-linecap="round" opacity="0.6"/>
      <!-- Flying strands -->
      <path d="M0,-12 L-4,-22" stroke="#0f0c06" stroke-width="3" stroke-linecap="round"/>
      <path d="M14,-14 L16,-26" stroke="#0f0c06" stroke-width="3" stroke-linecap="round"/>
      <path d="M24,-10 L28,-22" stroke="#0f0c06" stroke-width="2.5" stroke-linecap="round"/>
      <path d="M-8,-2 L-14,-12" stroke="#0f0c06" stroke-width="2" stroke-linecap="round" opacity="0.7"/>
      <!-- Furrowed eyebrows -->
      <path d="M-8,32 Q-2,28 4,31" fill="none" stroke="#0f0c06" stroke-width="3.5" stroke-linecap="round"/>
      <path d="M16,31 Q22,28 28,32" fill="none" stroke="#0f0c06" stroke-width="3.5" stroke-linecap="round"/>
      <!-- GLOWING EYES -->
      <ellipse cx="-2" cy="40" rx="5" ry="4.5" fill="#fff"/>
      <ellipse cx="22" cy="40" rx="5" ry="4.5" fill="#fff"/>
      <circle cx="-1" cy="41" r="3" fill="#58a6ff" filter="url(#gl)"/>
      <circle cx="23" cy="41" r="3" fill="#58a6ff" filter="url(#gl)"/>
      <ellipse cx="-2" cy="40" rx="9" ry="7" fill="#58a6ff" opacity="0.15" filter="url(#gl2)"/>
      <ellipse cx="22" cy="40" rx="9" ry="7" fill="#58a6ff" opacity="0.15" filter="url(#gl2)"/>
      <path d="M8,47 Q10,50 12,47" fill="none" stroke="#a07850" stroke-width="1.2"/>
      <!-- Goatee -->
      <path d="M2,52 Q6,55 10,52 Q14,55 18,52" fill="#0f0c06" opacity="0.9"/>
      <path d="M4,55 Q10,64 16,55 Q14,60 10,63 Q6,60 4,55 Z" fill="#0f0c06" opacity="0.8"/>
      <!-- Grin -->
      <path d="M2,53 Q10,59 18,53" fill="none" stroke="#8b6948" stroke-width="1.5" stroke-linecap="round"/>
      <rect x="4" y="53" width="12" height="3" rx="1" fill="#f0e6d6" opacity="0.6"/>
      <!-- Arms slamming on MacBook -->
      <path d="M-12,95 Q-8,115 6,136" fill="none" stroke="#2b5ea8" stroke-width="12" stroke-linecap="round"/>
      <path d="M32,95 Q28,115 14,136" fill="none" stroke="#2b5ea8" stroke-width="12" stroke-linecap="round"/>
      <ellipse cx="8" cy="138" rx="7" ry="4" fill="#b8885a"/>
      <ellipse cx="16" cy="138" rx="7" ry="4" fill="#b8885a"/>
    </g>

    <!-- Aura -->
    <ellipse cx="140" cy="200" rx="70" ry="90" fill="url(#aura)" opacity="0.07" filter="url(#gl2)"/>
    <circle cx="140" cy="200" r="65" fill="none" stroke="url(#aura)" stroke-width="1.5" opacity="0.3" filter="url(#gl)">
      <animate attributeName="r" values="65;85;65" dur="1.5s" repeatCount="indefinite"/>
      <animate attributeName="opacity" values="0.3;0.1;0.3" dur="1.5s" repeatCount="indefinite"/>
    </circle>
    <circle cx="140" cy="200" r="45" fill="none" stroke="#bc8cff" stroke-width="1" opacity="0.2" filter="url(#gl)">
      <animate attributeName="r" values="45;65;45" dur="1.2s" repeatCount="indefinite"/>
      <animate attributeName="opacity" values="0.2;0.06;0.2" dur="1.2s" repeatCount="indefinite"/>
    </circle>
    <g stroke="#58a6ff" stroke-width="1.5" stroke-linecap="round" opacity="0.35">
      <line x1="78" y1="150" x2="28" y2="110"/><line x1="75" y1="170" x2="18" y2="165"/>
      <line x1="78" y1="190" x2="23" y2="210"/><line x1="200" y1="145" x2="258" y2="105"/>
      <line x1="202" y1="165" x2="268" y2="160" stroke="#bc8cff"/><line x1="200" y1="185" x2="263" y2="205" stroke="#bc8cff"/>
    </g>
    <g filter="url(#gl)">
      <circle cx="108" cy="260" r="3" fill="#58a6ff"><animate attributeName="cy" values="260;130;40" dur="2s" repeatCount="indefinite"/><animate attributeName="opacity" values="0.8;0.4;0" dur="2s" repeatCount="indefinite"/></circle>
      <circle cx="148" cy="268" r="2.5" fill="#bc8cff"><animate attributeName="cy" values="268;140;35" dur="2.3s" begin="0.3s" repeatCount="indefinite"/><animate attributeName="opacity" values="0.7;0.35;0" dur="2.3s" begin="0.3s" repeatCount="indefinite"/></circle>
      <circle cx="168" cy="262" r="2" fill="#ffa657"><animate attributeName="cy" values="262;148;50" dur="1.8s" begin="0.6s" repeatCount="indefinite"/><animate attributeName="opacity" values="0.6;0.3;0" dur="1.8s" begin="0.6s" repeatCount="indefinite"/></circle>
      <circle cx="122" cy="255" r="3" fill="#7ee787"><animate attributeName="cy" values="255;120;25" dur="2.5s" begin="0.2s" repeatCount="indefinite"/><animate attributeName="opacity" values="0.8;0.35;0" dur="2.5s" begin="0.2s" repeatCount="indefinite"/></circle>
    </g>
    <g filter="url(#gl)">
      <path d="M120,258 L116,248 L124,251 L119,240" fill="none" stroke="#58a6ff" stroke-width="1.5" stroke-linecap="round"><animate attributeName="opacity" values="0;1;0;1;0" dur="0.3s" repeatCount="indefinite"/></path>
      <path d="M160,255 L164,245 L156,248 L162,237" fill="none" stroke="#bc8cff" stroke-width="1.5" stroke-linecap="round"><animate attributeName="opacity" values="1;0;1;0;1" dur="0.25s" repeatCount="indefinite"/></path>
    </g>

    <!-- MacBook + desk in power-up -->
    <rect x="70" y="250" width="200" height="6" rx="2" fill="#1c2128"/>
    <rect x="108" y="212" width="64" height="38" rx="4" fill="#2d2d2d"/>
    <rect x="112" y="216" width="56" height="30" rx="2" fill="#0a0e14"/>
    <path d="M104,250 L176,250 L180,254 Q180,256 178,256 L102,256 Q100,256 100,254 Z" fill="#2d2d2d"/>
    <!-- Code scrolling on MacBook -->
    <g><animateTransform attributeName="transform" type="translate" values="0,0;0,-6;0,-12;0,0" dur="2s" repeatCount="indefinite"/>
      <rect x="116" y="220" width="24" height="2" rx="0.5" fill="#ff7b72" opacity="0.7"/>
      <rect x="116" y="224" width="38" height="2" rx="0.5" fill="#79c0ff" opacity="0.6"/>
      <rect x="116" y="228" width="18" height="2" rx="0.5" fill="#7ee787" opacity="0.5"/>
      <rect x="116" y="232" width="32" height="2" rx="0.5" fill="#d2a8ff" opacity="0.5"/>
      <rect x="116" y="236" width="22" height="2" rx="0.5" fill="#ffa657" opacity="0.5"/>
      <rect x="116" y="240" width="28" height="2" rx="0.5" fill="#c9d1d9" opacity="0.4"/>
      <rect x="116" y="244" width="16" height="2" rx="0.5" fill="#ff7b72" opacity="0.5"/>
    </g>

    <!-- Monitor with code flood -->
    <g filter="url(#sh)">
      <rect x="320" y="30" width="300" height="210" rx="8" fill="#0d1117" stroke="#21262d" stroke-width="1"/>
      <rect x="328" y="38" width="284" height="194" rx="4" fill="#0a0e14"/>
    </g>
    <g><animateTransform attributeName="transform" type="translate" values="0,0;0,-20;0,-40;0,0" dur="3s" repeatCount="indefinite"/>
      <rect x="340" y="50" width="160" height="3" rx="1" fill="#ff7b72" opacity="0.8"/><rect x="340" y="60" width="220" height="3" rx="1" fill="#c9d1d9" opacity="0.6"/><rect x="355" y="70" width="180" height="3" rx="1" fill="#79c0ff" opacity="0.7"/><rect x="355" y="80" width="140" height="3" rx="1" fill="#d2a8ff" opacity="0.6"/><rect x="355" y="90" width="200" height="3" rx="1" fill="#a5d6ff" opacity="0.7"/><rect x="370" y="100" width="120" height="3" rx="1" fill="#7ee787" opacity="0.6"/><rect x="370" y="110" width="160" height="3" rx="1" fill="#c9d1d9" opacity="0.5"/><rect x="355" y="120" width="190" height="3" rx="1" fill="#ffa657" opacity="0.7"/><rect x="355" y="130" width="140" height="3" rx="1" fill="#ff7b72" opacity="0.6"/><rect x="340" y="140" width="240" height="3" rx="1" fill="#79c0ff" opacity="0.8"/><rect x="355" y="150" width="170" height="3" rx="1" fill="#d2a8ff" opacity="0.5"/><rect x="355" y="160" width="150" height="3" rx="1" fill="#7ee787" opacity="0.7"/><rect x="340" y="170" width="200" height="3" rx="1" fill="#ffa657" opacity="0.5"/><rect x="355" y="180" width="170" height="3" rx="1" fill="#ff7b72" opacity="0.6"/><rect x="340" y="190" width="220" height="3" rx="1" fill="#56d364" opacity="0.7"/><rect x="355" y="200" width="150" height="3" rx="1" fill="#79c0ff" opacity="0.5"/><rect x="340" y="210" width="190" height="3" rx="1" fill="#c9d1d9" opacity="0.7"/>
    </g>

    <text x="420" y="282" font-family="monospace" font-size="11" fill="#58a6ff" text-anchor="middle" filter="url(#gl)">let's go.</text>
  </g>

  <!-- ========== SCENE 4: BUILDING ========== -->
  <g opacity="0">
    <animate attributeName="opacity" values="0;0;0;0;0;0;1;1;0;0;0;0;0" keyTimes="0;0.2;0.25;0.35;0.4;0.5;0.55;0.7;0.75;0.8;0.85;0.9;1" dur="20s" repeatCount="indefinite"/>

    <!-- Small dev at MacBook -->
    <g transform="translate(55,160) scale(0.6)">
      <rect x="-24" y="80" width="68" height="70" rx="10" fill="#161b22"/>
      <path d="M-12,95 Q-14,79 2,71 L18,71 Q34,79 32,95 L34,150 L-14,150 Z" fill="#2b5ea8"/>
      <rect x="2" y="57" width="16" height="14" rx="5" fill="#b8885a"/>
      <ellipse cx="10" cy="40" rx="26" ry="19" fill="#c9956a"/>
      <ellipse cx="-14" cy="42" rx="5" ry="7" fill="#b8885a"/>
      <ellipse cx="34" cy="42" rx="5" ry="7" fill="#b8885a"/>
      <path d="M-16,34 Q-18,10 -8,-4 Q4,-12 14,-14 Q26,-12 38,-6 Q46,2 44,18 Q44,26 42,34 L36,30 Q28,24 20,22 Q12,22 4,24 Q-4,30 -12,34 Z" fill="#0f0c06"/>
      <path d="M-6,0 Q6,-10 18,-12 Q32,-6 42,8" fill="none" stroke="#0f0c06" stroke-width="9" stroke-linecap="round"/>
      <path d="M0,-4 Q12,-12 24,-10 Q36,-2 44,10" fill="none" stroke="#111" stroke-width="6" stroke-linecap="round" opacity="0.6"/>
      <path d="M-8,32 Q-2,28 4,31" fill="none" stroke="#0f0c06" stroke-width="3" stroke-linecap="round"/>
      <path d="M16,31 Q22,28 28,32" fill="none" stroke="#0f0c06" stroke-width="3" stroke-linecap="round"/>
      <ellipse cx="-2" cy="40" rx="4" ry="3.5" fill="#fff"/><ellipse cx="22" cy="40" rx="4" ry="3.5" fill="#fff"/>
      <circle cx="-1" cy="41" r="2.5" fill="#58a6ff" filter="url(#gl)"/><circle cx="23" cy="41" r="2.5" fill="#58a6ff" filter="url(#gl)"/>
      <path d="M8,47 Q10,50 12,47" fill="none" stroke="#a07850" stroke-width="1.2"/>
      <path d="M2,52 Q6,55 10,52 Q14,55 18,52" fill="#0f0c06" opacity="0.9"/>
      <path d="M4,55 Q10,64 16,55 Q14,60 10,63 Q6,60 4,55 Z" fill="#0f0c06" opacity="0.8"/>
      <path d="M2,53 Q10,57 18,53" fill="none" stroke="#8b6948" stroke-width="1.2"/>
    </g>

    <!-- Architecture diagram -->
    <g filter="url(#sh)">
      <rect x="180" y="30" width="180" height="48" rx="8" fill="#0d1117" stroke="#61dafb" stroke-width="1.5"/>
      <rect x="184" y="34" width="5" height="40" rx="2" fill="#61dafb"/>
      <text x="200" y="52" font-family="monospace" font-size="11" fill="#61dafb" font-weight="bold">React + Next.js</text>
      <text x="200" y="68" font-family="monospace" font-size="8" fill="#484f58">SSR, App Router, Tailwind</text>
      <line x1="270" y1="78" x2="270" y2="98" stroke="#30363d" stroke-width="1.5" stroke-dasharray="4 3"/>
      <polygon points="265,96 270,106 275,96" fill="#56d364"/>
      <circle r="3" fill="#61dafb" filter="url(#gl)"><animateMotion dur="1s" repeatCount="indefinite" path="M270,78 L270,106"/><animate attributeName="opacity" values="0;1;0" dur="1s" repeatCount="indefinite"/></circle>
      <rect x="180" y="106" width="180" height="48" rx="8" fill="#0d1117" stroke="#56d364" stroke-width="1.5"/>
      <rect x="184" y="110" width="5" height="40" rx="2" fill="#56d364"/>
      <text x="200" y="128" font-family="monospace" font-size="11" fill="#56d364" font-weight="bold">Node.js API</text>
      <text x="200" y="144" font-family="monospace" font-size="8" fill="#484f58">REST, tRPC, WebSocket</text>
      <line x1="270" y1="154" x2="270" y2="174" stroke="#30363d" stroke-width="1.5" stroke-dasharray="4 3"/>
      <polygon points="265,172 270,182 275,172" fill="#bc8cff"/>
      <circle r="3" fill="#56d364" filter="url(#gl)"><animateMotion dur="1.2s" begin="0.3s" repeatCount="indefinite" path="M270,154 L270,182"/><animate attributeName="opacity" values="0;1;0" dur="1.2s" begin="0.3s" repeatCount="indefinite"/></circle>
      <rect x="180" y="182" width="180" height="48" rx="8" fill="#0d1117" stroke="#bc8cff" stroke-width="1.5"/>
      <rect x="184" y="186" width="5" height="40" rx="2" fill="#bc8cff"/>
      <text x="200" y="204" font-family="monospace" font-size="11" fill="#bc8cff" font-weight="bold">Prisma + PostgreSQL</text>
      <text x="200" y="220" font-family="monospace" font-size="8" fill="#484f58">Type-safe ORM, Migrations</text>
      <rect x="400" y="50" width="120" height="34" rx="6" fill="#0d1117" stroke="#ffa657" stroke-width="1"/>
      <text x="415" y="72" font-family="monospace" font-size="10" fill="#ffa657">Authentication</text>
      <line x1="360" y1="54" x2="400" y2="67" stroke="#30363d" stroke-width="0.8" stroke-dasharray="3 2"/>
      <rect x="400" y="96" width="120" height="34" rx="6" fill="#0d1117" stroke="#58a6ff" stroke-width="1"/>
      <text x="415" y="118" font-family="monospace" font-size="10" fill="#58a6ff">WebSocket</text>
      <line x1="360" y1="130" x2="400" y2="113" stroke="#30363d" stroke-width="0.8" stroke-dasharray="3 2"/>
      <rect x="400" y="142" width="120" height="34" rx="6" fill="#0d1117" stroke="#f85149" stroke-width="1"/>
      <text x="415" y="164" font-family="monospace" font-size="10" fill="#f85149">Redis Cache</text>
      <line x1="360" y1="130" x2="400" y2="159" stroke="#30363d" stroke-width="0.8" stroke-dasharray="3 2"/>
      <rect x="400" y="192" width="120" height="34" rx="6" fill="#0d1117" stroke="#7ee787" stroke-width="1"/>
      <text x="415" y="214" font-family="monospace" font-size="10" fill="#7ee787">AWS / Vercel</text>
      <line x1="360" y1="206" x2="400" y2="209" stroke="#30363d" stroke-width="0.8" stroke-dasharray="3 2"/>
    </g>
    <g transform="translate(570,40)">
      <text x="0" y="0" font-family="monospace" font-size="9" fill="#484f58">CI/CD Pipeline</text>
      <rect x="0" y="10" width="90" height="28" rx="6" fill="#0d1117" stroke="#21262d" stroke-width="0.8"/>
      <text x="12" y="28" font-family="monospace" font-size="9" fill="#8b949e">Build</text>
      <circle cx="75" cy="24" r="7" fill="#0d1117" stroke="#56d364" stroke-width="1.2"/>
      <path d="M71,24 L74,27 L79,21" fill="none" stroke="#56d364" stroke-width="1.5" stroke-linecap="round"/>
      <line x1="45" y1="38" x2="45" y2="48" stroke="#30363d" stroke-width="0.5"/>
      <rect x="0" y="48" width="90" height="28" rx="6" fill="#0d1117" stroke="#21262d" stroke-width="0.8"/>
      <text x="12" y="66" font-family="monospace" font-size="9" fill="#8b949e">Test</text>
      <circle cx="75" cy="62" r="7" fill="#0d1117" stroke="#56d364" stroke-width="1.2"/>
      <path d="M71,62 L74,65 L79,59" fill="none" stroke="#56d364" stroke-width="1.5" stroke-linecap="round"/>
      <line x1="45" y1="76" x2="45" y2="86" stroke="#30363d" stroke-width="0.5"/>
      <rect x="0" y="86" width="90" height="28" rx="6" fill="#0d1117" stroke="#21262d" stroke-width="0.8"/>
      <text x="12" y="104" font-family="monospace" font-size="9" fill="#8b949e">Deploy</text>
      <circle cx="75" cy="100" r="7" fill="#0d1117" stroke="#56d364" stroke-width="1.2"/>
      <path d="M71,100 L74,103 L79,97" fill="none" stroke="#56d364" stroke-width="1.5" stroke-linecap="round"/>
    </g>
    <text x="420" y="282" font-family="monospace" font-size="11" fill="#bc8cff" text-anchor="middle" filter="url(#gl)">building at full speed</text>
  </g>

  <!-- ========== SCENE 5: SHIPPED ========== -->
  <g opacity="0">
    <animate attributeName="opacity" values="0;0;0;0;0;0;0;0;1;1;0;0;0" keyTimes="0;0.2;0.25;0.35;0.4;0.5;0.55;0.7;0.75;0.9;0.92;0.95;1" dur="20s" repeatCount="indefinite"/>

    <g transform="translate(100,125)">
      <rect x="-24" y="80" width="68" height="70" rx="10" fill="#161b22"/>
      <path d="M-12,95 Q-14,79 2,71 L18,71 Q34,79 32,95 L34,150 L-14,150 Z" fill="#2b5ea8"/>
      <path d="M0,71 L10,81 L20,71" fill="none" stroke="#3a70b8" stroke-width="1.5"/>
      <circle cx="10" cy="79" r="0.8" fill="#1e4d80"/>
      <rect x="2" y="57" width="16" height="14" rx="5" fill="#b8885a"/>
      <ellipse cx="10" cy="40" rx="26" ry="19" fill="#c9956a"/>
      <ellipse cx="-14" cy="42" rx="5" ry="7" fill="#b8885a"/>
      <ellipse cx="34" cy="42" rx="5" ry="7" fill="#b8885a"/>
      <!-- Hair -->
      <path d="M-16,34 Q-18,10 -8,-4 Q4,-12 14,-14 Q26,-12 38,-6 Q46,2 44,18 Q44,26 42,34 L36,30 Q28,24 20,22 Q12,22 4,24 Q-4,30 -12,34 Z" fill="#0f0c06"/>
      <path d="M-6,0 Q6,-10 18,-12 Q32,-6 42,8" fill="none" stroke="#0f0c06" stroke-width="9" stroke-linecap="round"/>
      <path d="M0,-4 Q12,-12 24,-10 Q36,-2 44,10" fill="none" stroke="#111" stroke-width="6" stroke-linecap="round" opacity="0.6"/>
      <path d="M4,-6 Q14,-10 26,-6 Q38,-2 44,10" fill="none" stroke="#1a1812" stroke-width="2.5" stroke-linecap="round" opacity="0.35"/>
      <!-- Happy eyebrows -->
      <path d="M-7,32 Q-1,29 5,32" fill="none" stroke="#0f0c06" stroke-width="3" stroke-linecap="round"/>
      <path d="M15,32 Q21,29 27,32" fill="none" stroke="#0f0c06" stroke-width="3" stroke-linecap="round"/>
      <!-- Happy squinting eyes -->
      <ellipse cx="-2" cy="40" rx="4" ry="2.5" fill="#fff"/>
      <ellipse cx="22" cy="40" rx="4" ry="2.5" fill="#fff"/>
      <circle cx="-1" cy="40.5" r="2" fill="#2a1510"/>
      <circle cx="23" cy="40.5" r="2" fill="#2a1510"/>
      <path d="M8,47 Q10,50 12,47" fill="none" stroke="#a07850" stroke-width="1.2"/>
      <!-- Goatee -->
      <path d="M2,52 Q6,55 10,52 Q14,55 18,52" fill="#0f0c06" opacity="0.9"/>
      <path d="M4,55 Q10,64 16,55 Q14,60 10,63 Q6,60 4,55 Z" fill="#0f0c06" opacity="0.8"/>
      <!-- BIG grin -->
      <path d="M-2,53 Q10,62 22,53" fill="none" stroke="#8b6948" stroke-width="1.5" stroke-linecap="round"/>
      <rect x="2" y="53" width="16" height="4" rx="1" fill="#f0e6d6" opacity="0.6"/>
      <!-- Left arm on hip -->
      <path d="M-12,95 Q-22,112 -10,140" fill="none" stroke="#2b5ea8" stroke-width="12" stroke-linecap="round"/>
      <!-- Right fist UP -->
      <path d="M32,95 Q50,72 46,42" fill="none" stroke="#2b5ea8" stroke-width="12" stroke-linecap="round"/>
      <circle cx="46" cy="40" r="7" fill="#b8885a"/>
    </g>

    <!-- Sparkles -->
    <g fill="#ffa657">
      <polygon points="85,150 87,155 92,155 88,158 90,163 85,160 80,163 82,158 78,155 83,155" opacity="0.8"><animate attributeName="opacity" values="0;1;0;1" dur="0.7s" repeatCount="indefinite"/></polygon>
      <polygon points="175,133 177,138 182,138 178,141 180,146 175,143 170,146 172,141 168,138 173,138" opacity="0.7" fill="#58a6ff"><animate attributeName="opacity" values="1;0;1;0" dur="0.6s" repeatCount="indefinite"/></polygon>
      <polygon points="140,120 142,125 147,125 143,128 145,133 140,130 135,133 137,128 133,125 138,125" opacity="0.9" fill="#7ee787"><animate attributeName="opacity" values="0;1;0;1;0" dur="0.5s" repeatCount="indefinite"/></polygon>
    </g>

    <!-- Live browser -->
    <g filter="url(#sh)">
      <rect x="260" y="20" width="350" height="240" rx="8" fill="#0d1117" stroke="#56d364" stroke-width="1.5"/>
      <rect x="260" y="20" width="350" height="26" rx="8" fill="#161b22"/>
      <rect x="260" y="38" width="350" height="8" fill="#161b22"/>
      <circle cx="278" cy="33" r="4" fill="#ff5f57" opacity="0.7"/>
      <circle cx="292" cy="33" r="4" fill="#febc2e" opacity="0.7"/>
      <circle cx="306" cy="33" r="4" fill="#28c840" opacity="0.7"/>
      <rect x="322" y="26" width="170" height="14" rx="4" fill="#0d1117"/>
      <text x="336" y="36" font-family="monospace" font-size="8" fill="#56d364">https://abhyasika.online</text>
      <circle cx="590" cy="53" r="4" fill="#56d364"><animate attributeName="opacity" values="0.4;1;0.4" dur="1.5s" repeatCount="indefinite"/></circle>
      <text x="570" y="57" font-family="monospace" font-size="8" fill="#56d364" text-anchor="end">LIVE</text>
      <rect x="278" y="55" width="140" height="8" rx="2" fill="#e6edf3" opacity="0.85"/>
      <rect x="278" y="71" width="240" height="5" rx="1.5" fill="#484f58" opacity="0.4"/>
      <rect x="278" y="81" width="200" height="5" rx="1.5" fill="#484f58" opacity="0.3"/>
      <rect x="278" y="97" width="75" height="22" rx="6" fill="#58a6ff" opacity="0.85"/>
      <text x="292" y="112" font-family="monospace" font-size="9" fill="#fff">Get Started</text>
      <rect x="278" y="130" width="100" height="55" rx="6" fill="#161b22" stroke="#21262d" stroke-width="0.5"/>
      <rect x="286" y="138" width="35" height="4" rx="1" fill="#58a6ff" opacity="0.5"/>
      <text x="286" y="165" font-family="monospace" font-size="18" fill="#e6edf3" font-weight="bold">524</text>
      <text x="286" y="177" font-family="monospace" font-size="7" fill="#484f58">Active Users</text>
      <rect x="386" y="130" width="100" height="55" rx="6" fill="#161b22" stroke="#21262d" stroke-width="0.5"/>
      <rect x="394" y="138" width="40" height="4" rx="1" fill="#56d364" opacity="0.5"/>
      <text x="394" y="165" font-family="monospace" font-size="18" fill="#e6edf3" font-weight="bold">98%</text>
      <text x="394" y="177" font-family="monospace" font-size="7" fill="#484f58">Uptime</text>
      <rect x="494" y="130" width="100" height="55" rx="6" fill="#161b22" stroke="#21262d" stroke-width="0.5"/>
      <rect x="502" y="138" width="30" height="4" rx="1" fill="#ffa657" opacity="0.5"/>
      <text x="502" y="165" font-family="monospace" font-size="18" fill="#e6edf3" font-weight="bold">42ms</text>
      <text x="502" y="177" font-family="monospace" font-size="7" fill="#484f58">Avg Response</text>
      <rect x="278" y="195" width="316" height="53" rx="6" fill="#161b22"/>
      <polyline points="290,238 320,228 350,232 380,220 410,222 440,210 470,215 500,206 530,210 560,202" fill="none" stroke="#56d364" stroke-width="1.5" opacity="0.7"/>
      <text x="290" y="209" font-family="monospace" font-size="7" fill="#484f58">Growth</text>
    </g>

    <!-- Rocket -->
    <g><animateTransform attributeName="transform" type="translate" values="660,280;660,200;660,80;660,-30" dur="3s" repeatCount="indefinite"/>
      <path d="M0,-18 Q-7,-10 -7,4 L7,4 Q7,-10 0,-18Z" fill="#c9d1d9"/><circle cx="0" cy="-16" r="3" fill="#58a6ff"/>
      <path d="M-7,2 L-12,11 L-7,7Z" fill="#ff7b72"/><path d="M7,2 L12,11 L7,7Z" fill="#ff7b72"/>
      <path d="M-5,4 Q0,22 5,4" fill="url(#fire)" opacity="0.8"><animate attributeName="d" values="M-5,4 Q0,22 5,4;M-4,4 Q0,18 4,4;M-5,4 Q0,22 5,4" dur="0.15s" repeatCount="indefinite"/></path>
    </g>

    <text x="420" y="282" font-family="monospace" font-size="11" fill="#56d364" text-anchor="middle" font-weight="bold" filter="url(#gl)">shipped.</text>
  </g>

  <rect x="20" y="294" width="800" height="1.5" rx="1" fill="#21262d" opacity="0.5"/>
</svg>
